<svg width="65" height="54" viewBox="0 0 65 54" fill="none" xmlns="http://www.w3.org/2000/svg">
<path fill-rule="evenodd" clip-rule="evenodd" d="M64.8488 9.81261C64.8488 9.81261 61.9909 13.4992 56.0944 9.72121C53.655 7.25942 51.0754 5.70963 46.2818 5.57558C46.2818 5.57558 42.0895 4.00954 41.8132 0C41.8132 0 38.9107 1.16225e-06 35.4556 5.2059C35.4556 5.2059 28.6349 12.6705 36.2844 22.345C43.6413 30.3153 34.0277 38.4948 27.2537 42.2952C27.2537 42.2952 23.5672 35.9843 27.2537 28.9341C35.7806 14.4254 22.9192 6.45711 11.1282 1.63713C15.8081 8.26485 1.48016 18.9082 0.127403 31.5238C-1.17458 43.6622 7.51682 53.3773 25.5943 46.2824C25.5943 46.2824 23.5631 54.0922 29.8293 53.816C29.8293 53.816 38.3521 54.208 40.0806 53.7693C40.0806 53.7693 43.1904 53.4016 41.7848 51.3969C41.7848 51.3969 41.1856 50.1294 37.2004 50.0136C43.6758 46.583 43.0319 39.742 36.7617 39.8537C36.7617 39.8537 38.8782 38.6066 40.8525 40.3737C42.6399 41.9763 42.6744 45.3216 42.3373 47.4564C42.3373 47.4564 40.6554 55.1728 50.3299 53.5621C50.3299 53.5621 54.0389 51.6569 47.0577 49.7374C47.0577 49.7374 47.0232 49.7252 46.9074 49.6683C46.7916 49.6115 50.5473 43.3554 53.8642 39.3479C53.8642 39.3479 59.8074 31.3309 52.3895 24.8799C52.3895 24.8799 62.974 24.8372 64.8082 15.6238C65.1717 13.7998 64.9199 11.6833 64.8488 9.81261Z" fill="#DE6439"/>
<path fill-rule="evenodd" clip-rule="evenodd" d="M46.3996 4.44662C45.6846 2.29745 45.8816 1.28177 46.099 0.138123C46.099 0.138123 44.3256 0.816597 43.381 1.52148C43.381 1.52148 43.1962 3.59548 45.7089 4.42428L46.2797 4.48115L46.3996 4.44662Z" fill="#DE6439"/>
<path fill-rule="evenodd" clip-rule="evenodd" d="M16.2955 28.7736C16.2955 28.7736 22.9293 25.0423 23.5752 17.07L26.754 19.5114C25.3911 11.7706 20.5813 8.79698 14.5893 4.65338C14.5893 4.65338 15.0037 10.3894 10.2568 17.854C10.2568 17.854 6.294 25.1804 5.05092 27.1141C5.05092 27.1141 8.36783 27.2055 14.5426 21.5385L14.8188 21.4004L15.8324 26.2854L16.0274 28.9341L16.2955 28.7736Z" fill="#fff"/>
<path fill-rule="evenodd" clip-rule="evenodd" d="M64.2882 12.2114C64.2882 12.2114 63.5509 23.8683 51.4796 23.7749C51.4796 23.7749 44.0394 23.129 42.3353 22.8304C42.3353 22.8304 43.5093 23.3138 43.3712 23.3829C43.233 23.4519 41.9432 24.2807 41.8965 25.087C41.8965 25.087 39.1788 22.2312 42.5871 18.2217L40.8586 17.3239C40.8586 17.3239 43.0015 15.25 47.5615 14.3279C47.5615 14.3279 47.6082 13.9135 45.8106 13.1295C45.8106 13.1295 45.6725 12.4389 49.4038 12.1627C49.4038 12.1627 58.5258 15.25 62.9497 13.2229C62.9497 13.2229 63.882 12.6359 64.1013 12.0469L64.2273 11.6894L64.2862 12.2073L64.2882 12.2114Z" fill="white"/>
<path fill-rule="evenodd" clip-rule="evenodd" d="M52.0097 39.9918C52.0097 39.9918 56.9394 34.3716 54.5426 28.7513C54.5426 28.7513 52.5622 25.2028 50.8113 24.7418L49.8445 24.7194C53.1269 27.8251 52.7877 35.9376 51.8249 40.1421L52.0097 39.9918Z" fill="#fff"/>
</svg>
